<svg id="Layer_2" data-name="Layer 2" xmlns="http://www.w3.org/2000/svg" viewBox="0 0 38.05 65.41"><path d="M28.08,11.29a20.28,20.28,0,0,1,9-4.39A18.4,18.4,0,0,1,47.56,8.05,22,22,0,0,1,56,14.54a23.2,23.2,0,0,1,2.9,4.56,20,20,0,0,1,1.73,5.24A17.77,17.77,0,0,1,61,27.2c-.06.93-.07,1.87-.21,2.78a18.5,18.5,0,0,1-.58,2.7L59.77,34c-.15.43-.34.84-.51,1.27a21.85,21.85,0,0,1-6.47,8.57,19.48,19.48,0,0,1-19.66,2.81,25.79,25.79,0,0,0,9.38-1.26A19.92,19.92,0,0,0,50,40.7a20.83,20.83,0,0,0,4.62-7.28,16.22,16.22,0,0,0,1-8.19,19.71,19.71,0,0,0-3.38-7.8,20.19,20.19,0,0,0-6.4-5.87,17,17,0,0,0-8.51-2.28,22.31,22.31,0,0,0-4.63.54A34,34,0,0,0,28.08,11.29Z" transform="translate(-22.91 -6.6)"/><path d="M24.71,26.44a28.93,28.93,0,0,1-1.65-6.59A16.11,16.11,0,0,1,23,16.37a5.1,5.1,0,0,1,1.52-3.57,3,3,0,0,1,2.13-.66,3.58,3.58,0,0,1,2,.71,5.25,5.25,0,0,1,1.81,3.38,13.27,13.27,0,0,1,.06,3.5,15.18,15.18,0,0,1-.74,3.35A29.82,29.82,0,0,0,29,16.55a4.24,4.24,0,0,0-1.38-2.36,2,2,0,0,0-1.12-.36,1.39,1.39,0,0,0-1,.25,4.13,4.13,0,0,0-1.05,2.47,19,19,0,0,0-.19,3.22C24.3,22,24.5,24.2,24.71,26.44Z" transform="translate(-22.91 -6.6)"/><path d="M33.13,23.08a10.73,10.73,0,0,1-.76-3.46,6.6,6.6,0,0,1,.14-1.86,2.81,2.81,0,0,1,1.2-1.84,2.23,2.23,0,0,1,1.21-.29,2.28,2.28,0,0,1,1.15.32,2.61,2.61,0,0,1,1.14,1.88,6,6,0,0,1-.71,3.56A14.75,14.75,0,0,0,36,18.1a1.55,1.55,0,0,0-.67-.93,1.17,1.17,0,0,0-.95,0,1.72,1.72,0,0,0-.66,1,9.24,9.24,0,0,0-.34,1.55C33.27,20.76,33.22,21.9,33.13,23.08Z" transform="translate(-22.91 -6.6)"/><path d="M38.18,26.44a6.44,6.44,0,0,1-.72-2.69,3.86,3.86,0,0,1,.21-1.51,2.22,2.22,0,0,1,1.19-1.32,2.84,2.84,0,0,1,1.71-.14A2.1,2.1,0,0,1,42,21.86a2.38,2.38,0,0,1,.15,1.6,3.27,3.27,0,0,1-.62,1.3,4.26,4.26,0,0,0-.52-2.3,1.08,1.08,0,0,0-.72-.35,2,2,0,0,0-.92,0,1.21,1.21,0,0,0-.6.57,4.59,4.59,0,0,0-.35,1.1A21.13,21.13,0,0,0,38.18,26.44Z" transform="translate(-22.91 -6.6)"/><path d="M42.55,29.81a6.34,6.34,0,0,1-.76-2.69A4,4,0,0,1,42,25.59,2.25,2.25,0,0,1,44.11,24a3,3,0,0,1,.84.07,2.1,2.1,0,0,1,1.47,1.09,2.41,2.41,0,0,1,.14,1.63,3.17,3.17,0,0,1-.64,1.3,4.21,4.21,0,0,0-.56-2.29,1,1,0,0,0-.69-.32,2,2,0,0,0-.9,0,1.11,1.11,0,0,0-.57.55,3.91,3.91,0,0,0-.36,1.08A22.81,22.81,0,0,0,42.55,29.81Z" transform="translate(-22.91 -6.6)"/><path d="M44.23,33.18a4,4,0,0,1-.69-2.36,2.06,2.06,0,0,1,.59-1.47A1.71,1.71,0,0,1,45,28.9a2.2,2.2,0,0,1,.86,0,4.08,4.08,0,0,1,1.27.58,2.73,2.73,0,0,1,.93,1.14,2.27,2.27,0,0,1-.5,2.52,3.16,3.16,0,0,0-.66-1.86,2.94,2.94,0,0,0-.64-.45,6.45,6.45,0,0,0-.79-.31,1.28,1.28,0,0,0-.36,0,1,1,0,0,0-.36.53A20.18,20.18,0,0,0,44.23,33.18Z" transform="translate(-22.91 -6.6)"/><path d="M32.88,72l-1.55-.08c-.51-.06-1-.18-1.55-.28A6.64,6.64,0,0,1,27,70.05a6.53,6.53,0,0,1-1.06-1.32c-.14-.24-.25-.51-.37-.76a4,4,0,0,1-.31-.79L25,66.37l-.15-.81a15.26,15.26,0,0,1-.19-1.64A31.66,31.66,0,0,1,25,57.57l.52-3c.14-1,.28-1.93.36-2.9a27.15,27.15,0,0,0,0-5.84A20,20,0,0,0,25.38,43c-.22-1-.63-1.71-1-2.92a14.88,14.88,0,0,1-.39-3.2c-.05-1.05,0-2.08,0-3.12.09-2.07.31-4.12.59-6.15,0,2.05.13,4.1.31,6.13A23.7,23.7,0,0,0,26,39.58c.29.74.94,1.78,1.29,2.78a21.27,21.27,0,0,1,.94,3.1,26.65,26.65,0,0,1,.61,6.41,30.28,30.28,0,0,1-.9,6.27A52.58,52.58,0,0,0,26.72,64a13.83,13.83,0,0,0-.07,1.43v.71l.09.69a2.93,2.93,0,0,0,.14.68c.07.22.12.45.2.67a5,5,0,0,0,.67,1.19A6,6,0,0,0,30,71.12c.46.17.93.37,1.41.52l1.49.35Z" transform="translate(-22.91 -6.6)"/></svg>